<svg width="32" height="32" viewBox="0 0 32 32" fill="none" xmlns="http://www.w3.org/2000/svg">
<path fill-rule="evenodd" clip-rule="evenodd" d="M23.0172 11.2485L23.018 11.248C23.2841 11.0979 23.581 11.0107 23.886 10.9933C24.1913 10.9758 24.4966 11.0287 24.7782 11.1478C25.0599 11.267 25.3105 11.4492 25.5106 11.6805C25.7108 11.9118 25.8552 12.1859 25.9328 12.4818C26.0104 12.7777 26.019 13.0875 25.958 13.3873C25.897 13.687 25.7681 13.9688 25.5811 14.2109C25.3941 14.4529 25.1541 14.6488 24.8795 14.7835C24.6049 14.9181 24.303 14.9879 23.9972 14.9875L23.9972 14.9896H4V16.9896H23.9944C24.6066 16.9905 25.2108 16.8511 25.7606 16.5815C25.8403 16.5425 25.9185 16.5008 25.9952 16.4567C26.4474 16.1963 26.8451 15.8496 27.1651 15.4352C27.5395 14.9507 27.7976 14.3866 27.9197 13.7865C28.0417 13.1864 28.0245 12.5663 27.8692 11.974C27.7139 11.3816 27.4248 10.8328 27.0241 10.3698C26.6234 9.90682 26.1218 9.54202 25.5579 9.30351C25.0757 9.09956 24.559 8.9926 24.0373 8.98774C23.9489 8.98691 23.8603 8.98902 23.7718 8.99408C23.1613 9.02898 22.567 9.20341 22.0345 9.50395L22.0325 9.50506L22.0336 9.50707L23.0172 11.2485ZM4 21.0524L17.2058 25.7505C17.6837 25.9412 18.1977 26.0245 18.7113 25.9937C18.9088 25.9819 19.1043 25.9533 19.2959 25.9087C19.6026 25.8372 19.8991 25.7244 20.1771 25.5727C20.6288 25.3263 21.0206 24.9832 21.3246 24.5679C21.6286 24.1527 21.8372 23.6754 21.9357 23.1703C22.0342 22.6651 22.0201 22.1444 21.8943 21.6453C21.7686 21.1462 21.5344 20.681 21.2083 20.2829C21.0076 20.0378 20.7752 19.8218 20.5178 19.6403C20.357 19.5269 20.1866 19.427 20.008 19.3418C19.5443 19.1206 19.0376 19.0042 18.5239 19.001V18.998L4 18.998V21.0524ZM18.5103 20.9982L9.8151 20.9981L17.9842 23.9044L17.9835 23.9065C18.1776 23.9781 18.3847 24.0088 18.5916 23.9964C18.8115 23.9832 19.0258 23.9216 19.2193 23.8161C19.4127 23.7105 19.5805 23.5636 19.7106 23.3858C19.8408 23.208 19.9302 23.0036 19.9723 22.7873C20.0145 22.571 20.0085 22.348 19.9546 22.1343C19.9008 21.9206 19.8005 21.7213 19.6608 21.5508C19.5212 21.3803 19.3457 21.2427 19.1468 21.1479C18.9483 21.0531 18.7312 21.0033 18.5112 21.0019L18.5103 20.9982Z" fill="#4338CA"/>
<path d="M13.4988 12.7488C13.6488 12.8988 13.8738 12.9738 14.0988 12.9738C14.3238 12.9738 14.5113 12.8988 14.6988 12.7488L18.7113 8.81131C19.0488 8.47381 19.0488 7.94881 18.7113 7.61131C18.3738 7.27381 17.8488 7.27381 17.5113 7.61131L14.9613 10.1238V3.825C14.9613 3.375 14.5863 3 14.1363 3C13.6863 3 13.3113 3.375 13.3113 3.825V10.1613L10.7613 7.64881C10.4238 7.31131 9.89877 7.31131 9.56127 7.64881C9.22377 7.98631 9.22377 8.5113 9.56127 8.8488L13.4988 12.7488Z" fill="#4338CA"/>
</svg>
