<svg width="15" height="15" viewBox="0 0 15 15" fill="none" xmlns="http://www.w3.org/2000/svg">
<path fill-rule="evenodd" clip-rule="evenodd" d="M12.9333 8.95589C13.149 8.1507 13.1787 7.33949 13.0486 6.56792C12.8744 7.12665 12.5635 7.60932 12.1626 7.98818L12.1622 7.99222C11.8622 8.28768 11.5085 8.52391 11.1197 8.68794C10.6828 8.87222 10.2117 8.96111 9.73769 8.94866C9.26371 8.93621 8.79786 8.8227 8.37128 8.61574C7.9447 8.40877 7.56722 8.11311 7.2641 7.74853C6.96097 7.38395 6.73917 6.95885 6.61354 6.50166C6.48791 6.04448 6.46134 5.56573 6.53561 5.09745C6.60987 4.62916 6.78327 4.18213 7.04419 3.78625C7.28756 3.41699 7.60185 3.10017 7.96848 2.85399C8.43597 2.5273 8.98557 2.32138 9.56509 2.26729C9.36823 2.18988 9.16498 2.12275 8.95579 2.0667C5.95505 1.26265 2.87065 3.04343 2.0666 6.04417C1.26256 9.04492 3.04333 12.1293 6.04408 12.9334C9.04483 13.7374 12.1292 11.9566 12.9333 8.95589ZM11.7403 9.49989C10.7932 11.5142 8.51233 12.6242 6.28672 12.0278C3.7861 11.3578 2.30212 8.78744 2.97216 6.28682C3.43488 4.5599 4.80389 3.31785 6.43035 2.93525C6.35333 3.03267 6.28039 3.13355 6.2118 3.23763C5.87277 3.75201 5.64748 4.33284 5.55099 4.94129C5.45449 5.54974 5.48901 6.17178 5.65225 6.76582C5.81548 7.35985 6.10367 7.91219 6.49753 8.38589C6.89139 8.8596 7.38185 9.24375 7.93611 9.51267C8.49037 9.78158 9.09566 9.92906 9.7115 9.94524C10.3273 9.96142 10.9395 9.84592 11.5072 9.60648C11.586 9.57322 11.6638 9.53766 11.7403 9.49989ZM12.122 4.03793L11.8762 3.28132L11.6303 4.03793L10.8348 4.03793L11.4784 4.50554L11.2326 5.26215L11.8762 4.79454L12.5198 5.26215L12.2739 4.50554L12.9176 4.03793L12.122 4.03793ZM9.06367 3.28132L9.30951 4.03793L10.1051 4.03793L9.46144 4.50554L9.70728 5.26215L9.06367 4.79454L8.42006 5.26215L8.66589 4.50554L8.02228 4.03793L8.81783 4.03793L9.06367 3.28132ZM10.7158 5.91293L10.4699 5.15632L10.2241 5.91293L9.42853 5.91293L10.0721 6.38054L9.82631 7.13715L10.4699 6.66954L11.1135 7.13715L10.8677 6.38054L11.5113 5.91293L10.7158 5.91293Z" fill="#374151"/>
</svg>
