<svg width="15" height="15" viewBox="0 0 15 15" fill="none" xmlns="http://www.w3.org/2000/svg">
<g clip-path="url(#clip0_3604_14705)">
<path fill-rule="evenodd" clip-rule="evenodd" d="M5.40551 3.77622C5.57144 3.75888 5.73979 3.75 5.91013 3.75C8.18857 3.75 10.1091 5.33895 10.6974 7.5065C10.7444 7.50344 10.7918 7.50145 10.8394 7.50056C10.8201 7.50022 10.8007 7.50005 10.7812 7.50005L10.7655 7.50009L10.7655 7.5H11.4844H11.5126V7.49976C12.4057 7.48469 13.125 6.75604 13.125 5.85938C13.125 4.95328 12.3905 4.21875 11.4844 4.21875C11.1801 4.21875 10.8952 4.30156 10.651 4.44586C10.6503 4.18396 10.6105 3.93123 10.5372 3.69321C10.1719 2.63506 9.1672 1.875 7.98492 1.875C6.77196 1.875 5.74585 2.67504 5.40551 3.77622ZM12.7391 8.11212C13.5404 8.70744 14.0625 9.68111 14.0625 10.7812C14.0625 12.5934 12.6458 14.0625 10.8981 14.0625C10.859 14.0625 10.82 14.0617 10.7812 14.0603V14.0625H5.98459V14.0619C5.95982 14.0623 5.935 14.0625 5.91013 14.0625C3.16382 14.0625 0.9375 11.754 0.9375 8.90625C0.9375 6.60672 2.38919 4.65877 4.39412 3.99402C4.67199 2.26128 6.17386 0.9375 7.98492 0.9375C9.53876 0.9375 10.865 1.91196 11.3859 3.2831C11.4186 3.28187 11.4514 3.28125 11.4844 3.28125C12.9082 3.28125 14.0625 4.43552 14.0625 5.85938C14.0625 6.82776 13.5286 7.67145 12.7391 8.11212ZM10.7812 13.125H5.98459H5.93064V13.1249L5.91013 13.125C3.71334 13.125 1.875 11.2685 1.875 8.90625C1.875 6.54397 3.71334 4.6875 5.91013 4.6875C7.77369 4.6875 9.37929 6.02346 9.82353 7.87085L9.82494 7.87027C9.88768 8.1266 9.92768 8.39234 9.94258 8.66507C10.2347 8.51867 10.5596 8.4375 10.8981 8.4375C12.0962 8.4375 13.125 9.4545 13.125 10.7812C13.125 12.0987 12.1106 13.1107 10.9233 13.1248V13.125H10.7812Z" fill="#374151"/>
</g>
<defs>
<clipPath id="clip0_3604_14705">
<rect width="15" height="15" fill="white"/>
</clipPath>
</defs>
</svg>
