<svg width="30" height="18" viewBox="0 0 30 18" fill="none" xmlns="http://www.w3.org/2000/svg">
<path d="M24.4434 15.3959V14.8291C24.4434 12.0271 25.8134 9.38907 28.1081 7.77236L28.4725 7.51564V5.54314H27.6131C25.7673 5.54314 23.9583 6.11382 22.357 7.16386C22.3718 7.13545 22.3864 7.10686 22.4014 7.07856C23.4771 5.05123 25.0398 3.27932 26.9205 1.95428L27.2849 1.69755V0L26.2639 0.195537C23.587 0.708182 21.0569 1.90054 18.9468 3.64364C17.3378 4.9728 15.9947 6.60338 14.9981 8.4244C12.7175 4.24984 8.65929 1.13844 3.73616 0.195594L2.71516 5.72602e-05V1.69761L3.07954 1.95433C4.96025 3.27937 6.52294 5.05135 7.59864 7.07861C7.61365 7.10692 7.62821 7.1355 7.64305 7.16392C6.04169 6.11382 4.23264 5.5432 2.38688 5.5432H1.5275V7.51569L1.89188 7.77242C4.18664 9.38913 5.55665 12.0272 5.55665 14.8292V15.3959H0.333374V17.1147H29.6667V15.3959H24.4434V15.3959ZM25.7745 7.49598C23.841 9.42242 22.7246 12.0589 22.7246 14.8291V15.3959H20.7037V13.9258C20.7037 12.8121 20.8316 11.7025 21.0809 10.6228C22.3727 9.03054 24.0171 7.94607 25.7745 7.49598ZM20.0415 4.96862C21.004 4.17353 22.064 3.50648 23.1892 2.98283C22.2896 3.98097 21.512 5.08779 20.8831 6.27292C19.6412 8.61334 18.9848 11.2597 18.9848 13.9258V15.3959H16.9737C16.8832 13.6651 16.5209 11.996 15.9252 10.4352C16.8415 8.32574 18.2591 6.44096 20.0415 4.96862ZM6.80475 2.97602C11.6177 5.20947 14.9348 9.95683 15.2529 15.3959H11.0152V13.9258C11.0152 11.2596 10.3588 8.61334 9.11687 6.27292C8.48667 5.08515 7.70687 3.97593 6.80475 2.97602ZM4.2256 7.49598C5.98302 7.94607 7.6274 9.03054 8.91922 10.6229C9.16849 11.7025 9.29648 12.8121 9.29648 13.9259V15.3959H7.27552V14.8292C7.27546 12.0589 6.15908 9.42242 4.2256 7.49598Z" fill="#4338CA"/>
</svg>
