<svg width="15" height="15" viewBox="0 0 15 15" fill="none" xmlns="http://www.w3.org/2000/svg">
<g clip-path="url(#clip0_3604_14714)">
<path fill-rule="evenodd" clip-rule="evenodd" d="M0.9375 6.09375C0.9375 8.13879 2.08565 9.90576 3.75 10.7394V9.65637C2.62978 8.91339 1.875 7.60741 1.875 6.09375C1.875 3.73147 3.71334 1.875 5.91013 1.875C7.77369 1.875 9.37929 3.21096 9.82353 5.05835L9.82494 5.05777C9.88768 5.3141 9.92768 5.57984 9.94258 5.85257C10.2347 5.70617 10.5596 5.625 10.8981 5.625C12.0962 5.625 13.125 6.642 13.125 7.96874C13.125 8.77054 12.7493 9.45922 12.1875 9.87866V10.9661C13.2925 10.4543 14.0625 9.30476 14.0625 7.96874C14.0625 6.15656 12.6458 4.6875 10.8981 4.6875C10.8307 4.6875 10.7637 4.68969 10.6974 4.694C10.1091 2.52645 8.18857 0.9375 5.91013 0.9375C3.16382 0.9375 0.9375 3.24603 0.9375 6.09375ZM8.77451 9.46997C8.87281 9.52674 9.02678 9.50196 9.10551 9.36554C9.14863 9.29084 9.20405 9.13567 9.2442 8.88306C9.2602 8.78235 9.27227 8.67614 9.281 8.56707C9.00722 8.76077 8.79979 8.95709 8.69942 9.131C8.62069 9.26742 8.67622 9.4132 8.77451 9.46997ZM9.27862 7.46331C9.76722 7.18957 10.1809 7.0332 10.1809 7.0332C10.1809 7.0332 10.235 7.47338 10.2371 8.028C10.2394 8.63557 10.1793 9.38046 9.91734 9.83442C9.58786 10.4053 8.86639 10.6057 8.30589 10.2819C7.74539 9.95822 7.55811 9.23301 7.88759 8.66213C8.17511 8.16396 8.76781 7.74949 9.27862 7.46331ZM5.67943 9.94702C5.77772 10.0038 5.9317 9.979 6.01043 9.84259C6.05355 9.76788 6.10897 9.61272 6.14911 9.36011C6.16512 9.2594 6.17719 9.15318 6.18592 9.04412C5.91214 9.23782 5.70471 9.43413 5.60434 9.60805C5.52561 9.74446 5.58114 9.89025 5.67943 9.94702ZM6.18354 7.94035C6.67214 7.66661 7.08581 7.51024 7.08581 7.51024C7.08581 7.51024 7.13992 7.95043 7.14203 8.50505C7.14435 9.11262 7.08426 9.8575 6.82226 10.3115C6.49278 10.8823 5.77131 11.0827 5.21081 10.759C4.65031 10.4353 4.46303 9.71005 4.79251 9.13917C5.08003 8.641 5.67273 8.22654 6.18354 7.94035ZM10.1622 12.2404C10.0834 12.3768 9.92947 12.4016 9.83118 12.3448C9.73288 12.2881 9.67735 12.1423 9.75608 12.0059C9.85645 11.8319 10.0639 11.6356 10.3377 11.4419C10.3289 11.551 10.3169 11.6572 10.3009 11.7579C10.2607 12.0105 10.2053 12.1657 10.1622 12.2404ZM11.2376 9.90805C11.2376 9.90805 10.8239 10.0644 10.3353 10.3382C9.82448 10.6244 9.23177 11.0388 8.94426 11.537C8.61477 12.1079 8.80205 12.8331 9.36255 13.1568C9.92305 13.4805 10.6445 13.2802 10.974 12.7093C11.236 12.2553 11.2961 11.5104 11.2938 10.9029C11.2917 10.3482 11.2376 9.90805 11.2376 9.90805ZM6.68196 13.0957C6.78026 13.1525 6.93423 13.1277 7.01296 12.9913C7.05608 12.9166 7.1115 12.7614 7.15164 12.5088C7.16765 12.4081 7.17972 12.3019 7.18845 12.1928C6.91467 12.3865 6.70724 12.5828 6.60687 12.7567C6.52814 12.8932 6.58367 13.0389 6.68196 13.0957ZM7.18607 11.0891C7.67467 10.8153 8.08834 10.6589 8.08834 10.6589C8.08834 10.6589 8.14245 11.0991 8.14456 11.6537C8.14688 12.2613 8.08679 13.0062 7.82479 13.4602C7.49531 14.031 6.77384 14.2314 6.21334 13.9077C5.65284 13.584 5.46556 12.8588 5.79504 12.2879C6.08256 11.7897 6.67526 11.3752 7.18607 11.0891Z" fill="#374151"/>
</g>
<defs>
<clipPath id="clip0_3604_14714">
<rect width="15" height="15" fill="white"/>
</clipPath>
</defs>
</svg>
