<svg width="32" height="18" viewBox="0 0 32 18" fill="none" xmlns="http://www.w3.org/2000/svg">
<path d="M16 0.25C7.64997 0.25 0.849976 7.6 0.849976 16.65C0.849976 17.25 1.34998 17.8 1.99998 17.8H30C30.6 17.8 31.15 17.3 31.15 16.65C31.15 7.6 24.35 0.25 16 0.25ZM15.5 15.5L16 13.95L16.5 15.5H15.5ZM18.85 15.5L17.5 11.3C17.3 10.65 16.7 10.2 16 10.2C15.3 10.2 14.7 10.65 14.5 11.3L13.15 15.5H3.14998C3.69998 8.25 9.24997 2.5 16 2.5C22.75 2.5 28.3 8.25 28.85 15.5H18.85Z" fill="#4338CA"/>
<path d="M16 5.45001C15.4 5.45001 14.85 5.95001 14.85 6.60001V7.85001C14.85 8.45001 15.35 9.00001 16 9.00001C16.6 9.00001 17.15 8.50001 17.15 7.85001V6.60001C17.15 5.95001 16.6 5.45001 16 5.45001Z" fill="#4338CA"/>
<path d="M23.2 9.15001L22.4 9.95001C21.95 10.4 21.95 11.1 22.4 11.55C22.6 11.75 22.9 11.85 23.2 11.85C23.5 11.85 23.8 11.75 24 11.5L24.8 10.7C25.25 10.25 25.25 9.55001 24.8 9.10001C24.35 8.65001 23.65 8.70001 23.2 9.15001Z" fill="#4338CA"/>
<path d="M8.85001 9.15001C8.45001 8.70001 7.70001 8.65001 7.25001 9.05001C6.80001 9.45001 6.75001 10.2 7.15001 10.65L7.90001 11.45C8.10001 11.7 8.45001 11.8 8.75001 11.8C9.00001 11.8 9.30001 11.7 9.50001 11.5C9.95001 11.1 10 10.35 9.60001 9.90001L8.85001 9.15001Z" fill="#4338CA"/>
</svg>
