<svg width="32" height="32" viewBox="0 0 32 32" fill="none" xmlns="http://www.w3.org/2000/svg">
<path d="M26.1546 16.1903C25.4955 15.9872 24.797 16.053 24.1875 16.3754C23.8408 16.5588 23.5468 16.8129 23.3201 17.1191L21.8064 16.6528C21.8475 16.376 21.8691 16.0928 21.8691 15.8047C21.8691 14.603 21.4973 13.4866 20.863 12.564L22.0225 11.4812C22.3602 11.6575 22.7357 11.7575 23.1277 11.7709C23.1579 11.7719 23.1879 11.7724 23.218 11.7724C23.8741 11.7724 24.496 11.5275 24.9779 11.0775C26.0182 10.1058 26.0741 8.46903 25.1025 7.42872C24.6318 6.92479 23.9931 6.63426 23.3039 6.61071C22.6146 6.58751 21.9577 6.83341 21.4537 7.30411C20.6336 8.07016 20.4258 9.24945 20.8504 10.224L19.6897 11.3082C18.9245 10.7019 18.0016 10.2863 16.9935 10.1341V8.54878C17.9957 8.19385 18.7158 7.23708 18.7158 6.11485C18.7158 4.69133 17.5577 3.53323 16.1341 3.53323C14.7107 3.53323 13.5526 4.69133 13.5526 6.11485C13.5526 7.23708 14.2726 8.19385 15.2748 8.54878V10.1341C14.2667 10.2863 13.3438 10.7019 12.5786 11.3082L11.4178 10.224C11.8425 9.24939 11.6347 8.0701 10.8145 7.30411C9.77419 6.3325 8.13736 6.38836 7.16576 7.42872C6.19415 8.46903 6.25006 10.1058 7.29036 11.0775C7.7872 11.5416 8.42004 11.7712 9.05157 11.7712C9.46246 11.7712 9.8725 11.6732 10.2444 11.48L11.4052 12.5641C10.7709 13.4867 10.3991 14.6031 10.3991 15.8048C10.3991 15.8667 10.4004 15.9283 10.4023 15.9897L8.84417 16.2775C8.65454 15.9472 8.39191 15.6607 8.06879 15.4383C7.50068 15.0474 6.81439 14.9012 6.1364 15.0264C5.45829 15.1517 4.86956 15.5335 4.47866 16.1015C4.08776 16.6696 3.94149 17.3559 4.06673 18.034C4.29619 19.276 5.38416 20.1468 6.6043 20.1468C6.75933 20.1468 6.91654 20.1327 7.07432 20.1036C7.75242 19.9783 8.34115 19.5966 8.73205 19.0285C8.9544 18.7054 9.09734 18.344 9.15647 17.9677L10.7142 17.6799C10.9671 18.4086 11.3629 19.071 11.8681 19.6333L10.8582 20.8597C9.85898 20.4966 8.69493 20.7775 7.98153 21.6438C7.07667 22.7426 7.23445 24.3727 8.33324 25.2777C8.79983 25.6619 9.37297 25.8667 9.96961 25.8667C10.0537 25.8667 10.1383 25.8626 10.223 25.8544C10.9094 25.788 11.5288 25.4582 11.9671 24.9259C12.6805 24.0596 12.7329 22.8633 12.1849 21.9522L13.194 20.7269C14.0543 21.2427 15.0601 21.5397 16.1341 21.5397C16.6186 21.5397 17.0891 21.479 17.5388 21.3654L18.153 22.827C17.3667 23.5425 17.0735 24.7035 17.5083 25.7381C17.923 26.7247 18.883 27.3195 19.8917 27.3195C20.2246 27.3195 20.5628 27.2547 20.8884 27.1179C21.5241 26.8507 22.0177 26.352 22.2783 25.7136C22.5389 25.0752 22.5353 24.3735 22.2682 23.7378C21.8334 22.7031 20.7989 22.1001 19.7376 22.1611L19.1226 20.6978C20.0588 20.1239 20.8185 19.2891 21.2996 18.2952L22.8141 18.7618C22.8292 19.1424 22.9293 19.5179 23.1127 19.8646C23.4352 20.4741 23.9756 20.9216 24.6347 21.1246C24.8857 21.2019 25.1424 21.2403 25.3979 21.2403C25.8129 21.2403 26.2245 21.139 26.6018 20.9394C27.2113 20.617 27.6588 20.0765 27.8618 19.4175C28.0648 18.7585 27.9991 18.0599 27.6766 17.4504C27.3542 16.8408 26.8136 16.3933 26.1546 16.1903ZM7.3162 18.0541C7.18552 18.244 6.98878 18.3716 6.76219 18.4134C6.29418 18.4998 5.84335 18.1895 5.75695 17.7217C5.67056 17.2538 5.98085 16.8029 6.44869 16.7165C6.50146 16.7068 6.55394 16.7021 6.60579 16.7021C7.01359 16.7021 7.37722 16.9932 7.45388 17.4082C7.49576 17.6348 7.44683 17.8642 7.3162 18.0541ZM20.6836 24.4036C20.7729 24.6161 20.7741 24.8506 20.687 25.064C20.5999 25.2774 20.4349 25.444 20.2225 25.5333C19.784 25.7177 19.2771 25.5108 19.0927 25.0721C18.9084 24.6335 19.1153 24.1268 19.5539 23.9424C19.7663 23.8531 20.0009 23.852 20.2143 23.939C20.4276 24.0262 20.5943 24.1912 20.6836 24.4036ZM22.6268 8.56018C22.9745 8.2355 23.5216 8.25412 23.8463 8.60188C24.0037 8.77026 24.086 8.98986 24.0781 9.22023C24.0702 9.4506 23.9731 9.66407 23.8047 9.82139C23.4571 10.1461 22.91 10.1275 22.5852 9.77969C22.4279 9.61131 22.3456 9.39171 22.3535 9.16134C22.3613 8.93097 22.4584 8.7175 22.6268 8.56018ZM16.1341 5.25198C16.6098 5.25198 16.9969 5.63905 16.9969 6.11485C16.9969 6.59066 16.6099 6.97767 16.1341 6.97767C15.6583 6.97767 15.2713 6.5906 15.2713 6.11485C15.2713 5.6391 15.6583 5.25198 16.1341 5.25198ZM8.46353 9.82134C8.11582 9.49661 8.09715 8.94953 8.42187 8.60183C8.59152 8.42016 8.82183 8.32832 9.05277 8.32832C9.26383 8.32832 9.47535 8.40509 9.64139 8.56018C9.98909 8.88491 10.0078 9.43198 9.68304 9.77969C9.35831 10.1274 8.81123 10.1461 8.46353 9.82134ZM10.6404 23.8333C10.3379 24.2006 9.79309 24.2533 9.42585 23.9508C9.05856 23.6484 9.00585 23.1036 9.30829 22.7363C9.61073 22.369 10.1556 22.3162 10.5228 22.6187C10.8901 22.9212 10.9428 23.466 10.6404 23.8333ZM16.1341 19.821C13.9195 19.821 12.1178 18.0193 12.1178 15.8048C12.1178 13.5902 13.9195 11.7885 16.1341 11.7885C18.3486 11.7885 20.1503 13.5902 20.1503 15.8048C20.1503 18.0193 18.3487 19.821 16.1341 19.821ZM26.2192 18.9115C26.1514 19.1317 26.0018 19.3124 25.798 19.4202C25.5943 19.5279 25.3609 19.5499 25.1406 19.4821C24.9203 19.4143 24.7396 19.2647 24.6319 19.0609C24.5241 18.8572 24.5021 18.6237 24.57 18.4035C24.6378 18.1832 24.7874 18.0025 24.9911 17.8948C25.1173 17.828 25.2548 17.7942 25.3935 17.7942C25.4789 17.7942 25.5647 17.8071 25.6486 17.8329C25.8688 17.9007 26.0495 18.0503 26.1573 18.254C26.265 18.4577 26.287 18.6912 26.2192 18.9115Z" fill="#4338CA"/>
<path d="M16.8594 14.9831H18.5781V16.7018H16.8594V14.9831Z" fill="#4338CA"/>
<path d="M5.25024 2.85846H6.96899V4.57721H5.25024V2.85846Z" fill="#4338CA"/>
<path d="M1.33337 9.1441H3.05212V10.8629H1.33337V9.1441Z" fill="#4338CA"/>
<path d="M24.5352 2.28125H26.2539V4H24.5352V2.28125Z" fill="#4338CA"/>
<path d="M26.2578 12.4152H27.9766V14.1339H26.2578V12.4152Z" fill="#4338CA"/>
<path d="M24.938 23.5753H26.6567V25.2941H24.938V23.5753Z" fill="#4338CA"/>
<path d="M28.948 27.2953H30.6667V29.0141H28.948V27.2953Z" fill="#4338CA"/>
<path d="M13.5599 26.2686H15.2787V27.9873H13.5599V26.2686Z" fill="#4338CA"/>
<path d="M2.49231 28.0009H4.21106V29.7196H2.49231V28.0009Z" fill="#4338CA"/>
<path d="M3.35168 21.7153H5.07043V23.434H3.35168V21.7153Z" fill="#4338CA"/>
</svg>
