<svg width="15" height="15" viewBox="0 0 15 15" fill="none" xmlns="http://www.w3.org/2000/svg">
<g clip-path="url(#clip0_3604_14708)">
<path fill-rule="evenodd" clip-rule="evenodd" d="M11.3012 6.24001C12.0037 6.21716 12.6709 5.93169 13.1689 5.44194C13.4257 5.18609 13.6318 4.88068 13.7714 4.54154C13.9601 5.08567 14.0625 5.66952 14.0625 6.27706C14.0625 8.66788 12.4762 10.6917 10.2892 11.3721C10.3062 11.486 10.315 11.6026 10.315 11.7212C10.315 13.0163 9.26512 14.0662 7.97003 14.0662C7.92622 14.0662 7.88268 14.065 7.83947 14.0626H4.45548V14.0619L4.45252 14.0619C2.50988 14.0619 0.935059 12.502 0.935059 10.5778C0.935059 9.02672 1.95827 7.71238 3.37256 7.26092C3.31259 6.94203 3.28124 6.61317 3.28124 6.27706C3.28124 3.3281 5.69471 0.9375 8.67187 0.9375C9.09245 0.9375 9.50179 0.98521 9.89466 1.07546C9.56584 1.24662 9.27595 1.48084 9.04148 1.76183C8.60001 2.30625 8.38352 2.99689 8.43666 3.69407C8.49065 4.40238 8.81879 5.06268 9.35257 5.53708C9.88634 6.01149 10.5845 6.26333 11.3012 6.24001ZM4.29599 7.09701C4.34788 7.09476 4.40007 7.09362 4.45252 7.09362C5.97242 7.09362 7.26717 8.04849 7.7587 9.38563C7.82831 9.37942 7.8988 9.37624 7.97003 9.37624C8.81372 9.37624 9.55335 9.8218 9.96644 10.4905C11.6784 9.97746 12.9488 8.47348 13.1081 6.66274C12.5735 6.97623 11.9636 7.15503 11.3323 7.17556C10.372 7.2068 9.43664 6.86939 8.72148 6.23377C8.00632 5.59816 7.56667 4.71348 7.49433 3.76447C7.44664 3.13877 7.56105 2.517 7.81957 1.95541C5.7625 2.34905 4.21874 4.14061 4.21874 6.27706C4.21874 6.5571 4.24526 6.8312 4.29599 7.09701ZM4.46482 13.1244L4.45252 13.1244C3.01922 13.1244 1.87256 11.9759 1.87256 10.5778C1.87256 9.17969 3.01922 8.03112 4.45252 8.03112C5.56524 8.03112 6.5052 8.72335 6.87002 9.68715L6.87243 9.68588C6.97689 9.96358 7.03398 10.2641 7.03398 10.5779C7.03398 10.6093 7.03341 10.6405 7.03228 10.6716C7.28122 10.449 7.60982 10.3137 7.97003 10.3137C8.74735 10.3137 9.3775 10.9439 9.3775 11.7212C9.3775 12.4985 8.74735 13.1287 7.97003 13.1287H7.96874V13.1251H7.86895L7.8592 13.1244H6.09102L6.09156 13.1251H6.08812L6.08758 13.1244H4.46482Z" fill="#374151"/>
</g>
<defs>
<clipPath id="clip0_3604_14708">
<rect width="15" height="15" fill="white"/>
</clipPath>
</defs>
</svg>
