<svg width="30" height="30" viewBox="0 0 30 30" fill="none" xmlns="http://www.w3.org/2000/svg">
<mask id="mask0_51_12009" style="mask-type:luminance" maskUnits="userSpaceOnUse" x="0" y="0" width="30" height="30">
<path d="M0.333252 0.333324H29.6666V29.6667H0.333252V0.333324Z" fill="white"/>
</mask>
<g mask="url(#mask0_51_12009)">
<path d="M16.9929 5.14319V3.19012C16.9929 2.08697 17.8871 1.1927 18.9903 1.1927C19.916 1.1927 20.7203 1.82864 20.9338 2.72915L22.6412 9.92825C23.981 15.5777 23.3277 21.5165 20.7918 26.7395C19.9213 28.5326 17.7786 29.3029 15.9656 28.4746L14.9998 28.0333L14.034 28.4746C12.221 29.3029 10.0783 28.5326 9.2078 26.7395C6.67196 21.5165 6.01866 15.5777 7.35842 9.92825L9.06577 2.72915C9.27936 1.82864 10.0837 1.1927 11.0093 1.1927C12.1124 1.1927 13.0067 2.08697 13.0067 3.19012V5.14319" stroke="#4338CA" stroke-width="1.8" stroke-miterlimit="10"/>
<path d="M13.0066 22.698V5.14248C13.0066 4.04174 13.8989 3.14942 14.9997 3.14942C16.1004 3.14942 16.9928 4.04174 16.9928 5.14248V22.698" stroke="#4338CA" stroke-width="1.8" stroke-miterlimit="10"/>
</g>
</svg>
