<svg width="15" height="15" viewBox="0 0 15 15" fill="none" xmlns="http://www.w3.org/2000/svg">
<g clip-path="url(#clip0_3604_14713)">
<path fill-rule="evenodd" clip-rule="evenodd" d="M11.25 11.2299C12.832 11.0484 14.0625 9.65759 14.0625 7.96874C14.0625 6.15656 12.6458 4.6875 10.8981 4.6875C10.8307 4.6875 10.7637 4.68969 10.6974 4.694C10.1091 2.52645 8.18857 0.9375 5.91013 0.9375C3.16382 0.9375 0.9375 3.24603 0.9375 6.09375C0.9375 8.50401 2.53236 10.528 4.6875 11.093V10.1143C3.07153 9.57616 1.875 7.99957 1.875 6.09375C1.875 3.73147 3.71334 1.875 5.91013 1.875C7.77369 1.875 9.37929 3.21096 9.82353 5.05835L9.82494 5.05777C9.88768 5.3141 9.92768 5.57984 9.94258 5.85257C10.2347 5.70617 10.5596 5.625 10.8981 5.625C12.0962 5.625 13.125 6.642 13.125 7.96874C13.125 9.16343 12.2908 10.107 11.25 10.283V11.2299ZM6.32909 13.126C6.4426 13.126 6.56354 13.0275 6.56349 12.87C6.56347 12.7838 6.53386 12.6217 6.44228 12.3829C6.40577 12.2876 6.3631 12.1896 6.31612 12.0908C6.17591 12.3955 6.09447 12.6692 6.09453 12.87C6.09458 13.0275 6.21558 13.126 6.32909 13.126ZM5.76203 11.1362C6.04822 10.6548 6.32823 10.3125 6.32823 10.3125C6.32823 10.3125 6.59524 10.6666 6.87446 11.1458C7.18032 11.6708 7.50083 12.3459 7.50099 12.87C7.50119 13.5292 6.97665 14.0635 6.32938 14.0635C5.68211 14.0635 5.15724 13.5292 5.15703 12.87C5.15686 12.2948 5.46282 11.6395 5.76203 11.1362ZM9.37599 11.4638C9.37604 11.6213 9.2551 11.7197 9.14159 11.7197C9.02808 11.7197 8.90708 11.6213 8.90703 11.4638C8.90697 11.263 8.98841 10.9892 9.12862 10.6846C9.1756 10.7834 9.21827 10.8814 9.25478 10.9766C9.34636 11.2154 9.37597 11.3775 9.37599 11.4638ZM9.14073 8.90625C9.14073 8.90625 8.86072 9.24855 8.57453 9.72996C8.27532 10.2333 7.96936 10.8886 7.96953 11.4638C7.96974 12.1229 8.49461 12.6572 9.14188 12.6572C9.78915 12.6572 10.3137 12.1229 10.3135 11.4638C10.3133 10.9396 9.99282 10.2645 9.68696 9.73958C9.40774 9.26037 9.14073 8.90625 9.14073 8.90625Z" fill="#374151"/>
</g>
<defs>
<clipPath id="clip0_3604_14713">
<rect width="15" height="15" fill="white"/>
</clipPath>
</defs>
</svg>
