<svg width="12" height="30" viewBox="0 0 12 30" fill="none" xmlns="http://www.w3.org/2000/svg">
<path d="M11.5132 5.95371H9.25973C9.16694 5.95371 9.07519 5.95789 8.98395 5.96397C9.2595 4.64752 8.88829 3.22144 7.86832 2.20147L6.00014 0.333344L4.13196 2.20153C3.11198 3.2215 2.74083 4.64752 3.01633 5.96402C2.92509 5.95795 2.83328 5.95377 2.74055 5.95377H0.487061V9.17479C0.487061 9.95657 0.706048 10.6882 1.08579 11.3115H0.487061V14.5325C0.487061 15.3143 0.706048 16.0459 1.08579 16.6693H0.487061V19.8903C0.487061 22.1617 2.3349 24.0095 4.60627 24.0095H5.14047V29.6667H6.85981V24.0095H7.39401C9.66538 24.0095 11.5132 22.1617 11.5132 19.8903V16.6693H10.9145C11.2942 16.0459 11.5132 15.3143 11.5132 14.5325V11.3115H10.9145C11.2942 10.6882 11.5132 9.95657 11.5132 9.17479V5.95371ZM9.79387 7.67305V9.17473C9.79387 10.498 8.71733 11.5746 7.39401 11.5746H6.85981V10.073C6.85981 8.74965 7.93641 7.67305 9.25973 7.67305H9.79387ZM2.20635 13.0309H2.74049C4.06381 13.0309 5.14041 14.1075 5.14041 15.4308V16.9325H4.60621C3.28289 16.9325 2.20635 15.8559 2.20635 14.5325V13.0309ZM7.39401 16.9325H6.85981V15.4308C6.85981 14.1075 7.93641 13.0309 9.25973 13.0309H9.79387V14.5325C9.79387 15.8559 8.71733 16.9325 7.39401 16.9325ZM5.3477 3.41727L6.00014 2.76484L6.65257 3.41727C7.58824 4.353 7.58824 5.87559 6.65257 6.81132L6.00014 7.46375L5.3477 6.81132C4.41204 5.87554 4.41204 4.353 5.3477 3.41727ZM2.20635 7.67305H2.74049C4.06381 7.67305 5.14041 8.74965 5.14041 10.073V11.5746H4.60621C3.28289 11.5746 2.20635 10.498 2.20635 9.17473V7.67305ZM4.60621 22.2902C3.28289 22.2902 2.20635 21.2136 2.20635 19.8903V18.3886H2.74049C4.06381 18.3886 5.14041 19.4652 5.14041 20.7886V22.2902H4.60621ZM9.79387 19.8903C9.79387 21.2136 8.71733 22.2902 7.39401 22.2902H6.85981V20.7886C6.85981 19.4652 7.93641 18.3886 9.25973 18.3886H9.79387V19.8903Z" fill="#4338CA"/>
</svg>
