<svg width="15" height="15" viewBox="0 0 15 15" fill="none" xmlns="http://www.w3.org/2000/svg">
<g clip-path="url(#clip0_3604_14710)">
<path fill-rule="evenodd" clip-rule="evenodd" d="M7.03125 2.34375V0.9375H7.96875V2.34375H7.03125ZM9.6722 2.80022L10.3753 1.58237L11.1872 2.05112L10.4841 3.26897L9.6722 2.80022ZM7.5 10.7812C9.31218 10.7812 10.7812 9.31218 10.7812 7.5C10.7812 5.68782 9.31218 4.21875 7.5 4.21875C5.68782 4.21875 4.21875 5.68782 4.21875 7.5C4.21875 9.31218 5.68782 10.7812 7.5 10.7812ZM7.5 11.7188C9.82995 11.7188 11.7188 9.82995 11.7188 7.5C11.7188 5.17005 9.82995 3.28125 7.5 3.28125C5.17005 3.28125 3.28125 5.17005 3.28125 7.5C3.28125 9.82995 5.17005 11.7188 7.5 11.7188ZM12.6562 7.03125H14.0625V7.96875H12.6562V7.03125ZM12.9489 3.8128L11.7311 4.51593L12.1998 5.32782L13.4177 4.6247L12.9489 3.8128ZM3.8128 2.05112L4.51593 3.26897L5.32782 2.80022L4.6247 1.58237L3.8128 2.05112ZM2.80019 5.32782L1.58235 4.6247L2.0511 3.8128L3.26894 4.51593L2.80019 5.32782ZM7.03125 12.6562V14.0625H7.96875V12.6562H7.03125ZM2.34375 7.03125H0.9375V7.96875H2.34375V7.03125ZM1.58232 10.3753L2.80017 9.67218L3.26892 10.4841L2.05107 11.1872L1.58232 10.3753ZM4.51595 11.7311L3.81283 12.949L4.62473 13.4177L5.32785 12.1999L4.51595 11.7311ZM10.3753 13.4177L9.67218 12.1999L10.4841 11.7311L11.1872 12.949L10.3753 13.4177ZM11.7311 10.4841L12.9489 11.1872L13.4177 10.3753L12.1998 9.67218L11.7311 10.4841Z" fill="#374151"/>
</g>
<defs>
<clipPath id="clip0_3604_14710">
<rect width="15" height="15" fill="white"/>
</clipPath>
</defs>
</svg>
