<svg width="15" height="15" viewBox="0 0 15 15" fill="none" xmlns="http://www.w3.org/2000/svg">
<g clip-path="url(#clip0_3604_14715)">
<path fill-rule="evenodd" clip-rule="evenodd" d="M0.9375 6.09375C0.9375 8.32568 2.30509 10.2264 4.21875 10.9441V9.92371C2.84545 9.25944 1.875 7.8101 1.875 6.09375C1.875 3.73147 3.71334 1.875 5.91013 1.875C7.77369 1.875 9.37929 3.21096 9.82353 5.05835L9.82494 5.05777C9.88768 5.3141 9.92768 5.57984 9.94258 5.85257C10.2347 5.70617 10.5596 5.625 10.8981 5.625C12.0962 5.625 13.125 6.642 13.125 7.96874C13.125 9.28619 12.1106 10.2982 10.9233 10.3123V10.3125H10.7812V11.2478C10.82 11.2492 10.859 11.25 10.8981 11.25C12.6458 11.25 14.0625 9.78092 14.0625 7.96874C14.0625 6.15656 12.6458 4.6875 10.8981 4.6875C10.8307 4.6875 10.7637 4.68969 10.6974 4.694C10.1091 2.52645 8.18857 0.9375 5.91013 0.9375C3.16382 0.9375 0.9375 3.24603 0.9375 6.09375ZM8.04748 7.70873L6.17248 10.5212L5.68663 11.25H6.5625H7.98949L6.49499 13.3193L7.25501 13.8682L9.28626 11.0557L9.82301 10.3125H8.90625H7.43837L8.82753 8.22877L8.04748 7.70873ZM9.54418 12.6208C9.44685 12.8488 9.37542 13.0925 9.37549 13.3168C9.37562 13.7286 9.69052 14.0625 10.0788 14.0625C10.4672 14.0625 10.7819 13.7286 10.7817 13.3168C10.7817 13.1071 10.7028 12.8588 10.598 12.6212C10.3895 12.1488 10.0781 11.7188 10.0781 11.7188C10.0781 11.7188 9.75207 12.1339 9.54418 12.6208ZM4.21924 13.3168C4.21917 13.0925 4.2906 12.8488 4.38793 12.6208C4.59582 12.1339 4.92188 11.7188 4.92188 11.7188C4.92188 11.7188 5.23325 12.1488 5.44173 12.6212C5.5466 12.8588 5.62543 13.1071 5.62549 13.3168C5.62562 13.7286 5.31092 14.0625 4.92259 14.0625C4.53427 14.0625 4.21937 13.7286 4.21924 13.3168Z" fill="#374151"/>
</g>
<defs>
<clipPath id="clip0_3604_14715">
<rect width="15" height="15" fill="white"/>
</clipPath>
</defs>
</svg>
