<svg width="26" height="30" viewBox="0 0 26 30" fill="none" xmlns="http://www.w3.org/2000/svg">
<path d="M20.9157 7.17775C20.6559 5.38051 19.7926 3.72782 18.45 2.47743C16.9654 1.09481 15.03 0.333344 13.0002 0.333344C10.9704 0.333344 9.03501 1.09481 7.55035 2.47743C6.20778 3.72782 5.34456 5.38051 5.08469 7.17775C2.19289 8.44046 0.285767 11.321 0.285767 14.5098C0.285767 18.92 3.87377 22.508 8.28397 22.508C9.64322 22.508 10.9679 22.1624 12.1407 21.5164V29.6667H13.8595V21.5164C15.0324 22.1624 16.357 22.508 17.7162 22.508C22.1265 22.508 25.7144 18.92 25.7144 14.5098C25.7146 11.321 23.8075 8.4404 20.9157 7.17775ZM17.7164 20.7892C16.3142 20.7892 14.9589 20.3211 13.8596 19.4645V14.208L17.7141 12.1813L16.9142 10.6601L13.8596 12.2662V8.88298H12.1408V16.0757L9.08623 14.4695L8.28632 15.9908L12.1408 18.0175V19.4645C11.0415 20.3211 9.68624 20.7892 8.28409 20.7892C4.82155 20.7892 2.00463 17.9722 2.00463 14.5098C2.00463 11.8623 3.67904 9.48529 6.17117 8.59492L6.69688 8.40711L6.73893 7.85047C6.85798 6.27672 7.56215 4.81521 8.72179 3.73521C9.88716 2.64982 11.4067 2.05209 13.0002 2.05209C14.5938 2.05209 16.1133 2.64982 17.2787 3.73515C18.4383 4.81516 19.1425 6.27661 19.2616 7.85041L19.3036 8.40706L19.8293 8.59486C22.3215 9.48523 23.9959 11.8622 23.9959 14.5097C23.9959 17.9722 21.1789 20.7892 17.7164 20.7892Z" fill="#4338CA"/>
</svg>
